<svg id="Layer_1" data-name="Layer 1" xmlns="http://www.w3.org/2000/svg" viewBox="0 0 1024 1024">
  <defs>
    <style>
      .cls-1 {
        fill: #666766;
      }

      .cls-2 {
        fill: #123353;
      }

      .cls-3 {
        fill: #8ec34a;
      }
    </style>
  </defs>
  <title>simplye_logo_vector</title>
  <g>
    <path class="cls-1" d="M865.58,710.55q0-6.25-.09-12.5v-7.32L603.16,788.89,603.78,682l261.8-105.3v-8l0-112.27-262.4,98.18.62-106.86L865.52,342.47v-70c0-13.84.11-27.67,0-41.5-.06-7.48-2-8.78-8.75-6.07-6.17,2.47-12.19,5.34-18.39,7.75q-54,21-108,41.89C675,296,619.49,317.27,564.14,338.9c-17.67,6.93-35.67,10.73-54.67,7.79-11.51-1.78-21.86-6.25-29-15.88-6.81-9.14-5-15.27,5.28-19.14l98.12-37.07q95-36,190.07-71.84c6-2.26,12.08-4.13,18.66-6.36-3,12.93-.22,19.16,9,20,0-8.65,0-17.36,0-25.86S798.7,180,790.7,183q-48.69,18.05-97.34,36.2Q590.68,257.52,488,295.88c-14.47,5.4-20.24,13.77-20.24,29.12q.12,280.52-.13,561a35.54,35.54,0,0,0,12.75,28.12c23.43,20.35,50.43,22.81,78.72,13.1,26.75-9.19,53.07-19.63,79.58-29.52q109.64-41.09,219.44-81.77c5.62-2.08,7.53-5,7.53-10.89C865.44,773.55,865.58,742.05,865.58,710.55Z"/>
    <path class="cls-2" d="M740.38,170.42c-10.31,4.06-19.36,7.66-28.45,11.19Q617.57,218.34,523.19,255q-37.42,14.54-74.89,29c-8,3.09-8.41,3.7-8.4,12.39v337q-.07,112.23-.42,224.46c0,8.71,0,8.8-8.2,11.73-20.5,7.32-41.11,9-62,1.47-16.91-6.12-27.91-20.58-28.12-38.5-.23-19.33-.09-38.66-.08-58q.12-169.72.25-339.45,0-76.49.07-153c0-8,.22-16,.82-24,.78-10.39,6.89-17.34,16.18-20.94,26-10.1,52.23-19.79,78.39-29.56q69.85-26.1,139.74-52.1,44.63-16.63,89.28-33.22c7.87-2.92,10.87-.79,10.91,7.57,0,7.83,0,15.67-.13,23.49,0,1.53-1,3-1.46,4.55-1.63-.59-3.55-.82-4.86-1.83-5.69-4.44-7.8-10.13-3.83-18.51-10.12,3.75-18.63,6.84-27.09,10l-192.69,73q-41.51,15.73-83,31.58c-9.45,3.63-11.74,12.89-4.42,20.06a52.39,52.39,0,0,0,30.07,14.37c20,2.8,38-3.89,56-10.92q106.94-41.52,214-82.62c21.09-8.13,42.26-16.08,63.31-24.32C728.49,166.42,733.7,166.91,740.38,170.42Z"/>
    <path class="cls-3" d="M616.15,110.09c-10.31,4.06-19.36,7.66-28.45,11.19L399,194.7q-37.42,14.54-74.89,29c-8,3.09-8.41,3.7-8.4,12.39V573q-.07,112.23-.42,224.46c0,8.71,0,8.8-8.2,11.73-20.5,7.32-41.11,9-62,1.47-16.91-6.12-27.91-20.58-28.12-38.5-.23-19.33-.09-38.66-.08-58q.12-169.72.25-339.45,0-76.49.07-153c0-8,.22-16,.82-24,.78-10.39,6.89-17.34,16.18-20.94,26-10.1,52.23-19.79,78.39-29.56q69.85-26.1,139.74-52.1Q496.88,78.55,541.53,62c7.87-2.92,10.87-.79,10.91,7.57,0,7.83,0,15.67-.13,23.49,0,1.53-1,3-1.46,4.55-1.63-.59-3.55-.82-4.86-1.83-5.69-4.44-7.8-10.13-3.83-18.51-10.12,3.75-18.63,6.84-27.09,10q-96.33,36.44-192.64,72.92-41.51,15.73-83,31.58c-9.45,3.63-11.74,12.89-4.42,20.06a52.39,52.39,0,0,0,30.07,14.37c20,2.8,38-3.89,56-10.92q106.94-41.52,214-82.62c21.09-8.13,42.26-16.08,63.31-24.32C604.26,106.09,609.47,106.58,616.15,110.09Z"/>
  </g>
</svg>
